# xmcd
#
# Track frame offsets:
#	150
#	11980
#	22545
#	33965
#	42788
#	54960
#	65810
#	74620
#	86720
#	95303
#	109308
#	119450
#	135348
#	146813
#	159380
#	171273
#
# Disc length: 2407
#
# Revision: 3
# Processed by: cddbd v1.5.1PL0 Copyright (c) Steve Scherf et al.
# Submitted via: CDex 1.40Beta8
# Normalized: r2:TDELIM( - )
#
DISCID=d8096510
DTITLE=Various Artist - The Best Of Country Music Vol 4
DYEAR=1900
DGENRE=Country
TTITLE0=Bobby Bare - That's How I Got To Memphis
TTITLE1=Cash Mccall - Travellin' Alone
TTITLE2=Buck Owens - Above And Beyond
TTITLE3=Webb Pierce - Slowly
TTITLE4=Tommy Overstreet - Gwen (congratulations)
TTITLE5=Frankie Miller - Poppin' Johnny
TTITLE6=Cowboy Copas - The Rebel Johnny Yuma
TTITLE7=Justin Tubb - Looking Back To See
TTITLE8=Johnny Cash - Guess Things Happen That Way
TTITLE9=Dave Dudley - The Waterin' Hole
TTITLE10=Patsy Cline - Walking Dream
TTITLE11=Roger Miller - With Pen In Hand
TTITLE12=Red Sovine - Why Baby Why
TTITLE13=Charlie Rich - My Heart Cries For You
TTITLE14=Patsy Cline - Today Tomorrow And Forever
TTITLE15=Johnny Cash - Rock Island Line
EXTD=ID3G: 2
EXTT0=
EXTT1=
EXTT2=
EXTT3=
EXTT4=
EXTT5=
EXTT6=
EXTT7=
EXTT8=
EXTT9=
EXTT10=
EXTT11=
EXTT12=
EXTT13=
EXTT14=
EXTT15=
PLAYORDER=
